<?xml version="1.0" encoding="utf-8"?>
<!-- Generator: Adobe Illustrator 17.1.0, SVG Export Plug-In . SVG Version: 6.00 Build 0)  -->
<!DOCTYPE svg PUBLIC "-//W3C//DTD SVG 1.1//EN" "http://www.w3.org/Graphics/SVG/1.1/DTD/svg11.dtd">
<svg version="1.1"
	 id="svg2" inkscape:version="0.48.2 r9819" sodipodi:docname="Doctor_Who_logo_2012.svg" xmlns:inkscape="http://www.inkscape.org/namespaces/inkscape" xmlns:sodipodi="http://sodipodi.sourceforge.net/DTD/sodipodi-0.dtd" xmlns:dc="http://purl.org/dc/elements/1.1/" xmlns:svg="http://www.w3.org/2000/svg" xmlns:rdf="http://www.w3.org/1999/02/22-rdf-syntax-ns#" xmlns:cc="http://creativecommons.org/ns#"
	 xmlns="http://www.w3.org/2000/svg" xmlns:xlink="http://www.w3.org/1999/xlink" x="0px" y="0px" viewBox="259.188 0 78 147"
	 enable-background="new 259.188 0 78 147" xml:space="preserve">
<sodipodi:namedview  inkscape:window-maximized="0" inkscape:window-y="0" inkscape:window-x="-6" inkscape:pageshadow="2" inkscape:window-width="691" inkscape:pageopacity="0.0" inkscape:document-units="px" fit-margin-bottom="0" fit-margin-right="0" inkscape:window-height="700" inkscape:current-layer="layer2" bordercolor="#666666" id="base" inkscape:cx="234.06302" borderopacity="1.0" fit-margin-top="0" showgrid="false" inkscape:cy="137.60896" inkscape:zoom="0.85839035" fit-margin-left="0" pagecolor="#ffffff">
	<inkscape:grid  type="xygrid" snapvisiblegridlinesonly="true" id="grid3851" empspacing="5" enabled="true" visible="true">
		</inkscape:grid>
</sodipodi:namedview>
<g id="layer1" transform="translate(296.49144,-1229.36)" inkscape:groupmode="layer" inkscape:label="Calque 1">
	<g id="g2996" transform="matrix(0.24803555,0,0,0.24803555,-133.78012,1134.6846)">
	</g>
</g>
<g>
	<path fill="#FFFFFF" d="M298.266,0.188l-3.25,1.781l-3.281,1.812l-0.031,6.188l-0.031,4.219c0,0,6.566-3,6.656-3s6.688,3,6.688,3
		V10V3.812L298.266,0.188z"/>
	<path fill="#FFFFFF" d="M300.766,18.781c-0.035,0,0,124.469,0,124.469l0.375,1.062c-0.807,0.008,0.523,1.231,1,1.719l0.625,0.656
		l0.781-0.062c-0.097-0.087,2.2-0.593,6.969-3.031c3.206-1.639,10.462-5.441,16.125-8.438l10.281-5.438l0.062-1.812l0.031-1.844
		l-0.594-0.312l-0.594-0.312V83.719V42l0.594-0.375l0.594-0.344v-1.812l-0.031-1.812l-4.438-2.281l-4.438-2.312v39.719
		c0,25.935,0.053,40.771-0.844,41.688c-0.565,0.578-1.044,0.458-1.438-0.312l-0.312-0.594l-0.031-40.938l-0.031-40.938
		c0,0-8.762-4.562-8.812-4.562s-0.094,19.83-0.094,44.062c0,31.176-0.042,44.305-0.156,44.938c-0.307,1.698-0.989,2.563-1.938,2.469
		c-0.373-0.037-0.548-0.155-0.781-0.562l-0.312-0.531l-0.062-46.094l-0.062-46.125l-6.219-3.25
		C303.607,20.246,300.801,18.781,300.766,18.781z"/>
	<path fill="#FFFFFF" d="M295.359,22.219c-0.206-1.4-0.655-2.311-1.469-2.938c-0.434-0.334-0.647-0.457-0.969-0.469
		c-0.107-0.004-0.197,0.016-0.344,0.031c-0.549,0.056-3.637,1.753-16.906,9.312l-16.219,9.219l-0.062,1.906l-0.031,1.906
		l0.531,0.344l0.531,0.312v41.938v41.969l-0.531,0.406l-0.531,0.406v1.75v1.75l16.375,8.375c5.868,2.999,16.537,8.375,16.719,8.375
		c1.202-0.003,2.252-0.909,2.719-2.312C295.428,143.73,295.467,22.952,295.359,22.219z M278.766,115.531l-0.312,0.594
		c-0.183,0.331-0.568,0.748-0.844,0.938c-0.505,0.348-0.573,0.378-0.844,0.281c-0.081-0.029-0.531-0.148-1-0.281l-0.844-0.25v-34
		v-34l0.812-0.312c-0.482-0.001,0.976-0.313,1.156-0.312c0.562,0.001,1.293,0.573,1.594,1.25c0.277,0.625,0.28,1.431,0.281,33.375
		V115.531z"/>
</g>
</svg>
